#tb 0: 1/44100
#media_type 0: audio
#codec_id 0: pcm_s16le
#sample_rate 0: 44100
#channel_layout 0: 4
#channel_layout_name 0: mono
0,          0,          0,     1024,     2048, 0x1ee8f45a
0,       1024,       1024,     1024,     2048, 0x273ef6ee
0,       2048,       2048,     1024,     2048, 0x0a5f0111
0,       3072,       3072,     1024,     2048, 0x51be06b8
0,       4096,       4096,     1024,     2048, 0x71a1ffcb
0,       5120,       5120,     1024,     2048, 0x7f64f50f
0,       6144,       6144,     1024,     2048, 0x70a8fa17
0,       7168,       7168,     1024,     2048, 0x0dad072a
0,       8192,       8192,     1024,     2048, 0x5e810c51
0,       9216,       9216,     1024,     2048, 0xbe5bf462
0,      10240,      10240,     1024,     2048, 0xbcd9faeb
0,      11264,      11264,     1024,     2048, 0x0d5bfe9c
0,      12288,      12288,     1024,     2048, 0x97d80297
0,      13312,      13312,     1024,     2048, 0xba0f0894
0,      14336,      14336,     1024,     2048, 0xcc22f291
0,      15360,      15360,     1024,     2048, 0x11a9fa03
0,      16384,      16384,     1024,     2048, 0x9a920378
0,      17408,      17408,     1024,     2048, 0x901b0525
0,      18432,      18432,     1024,     2048, 0x74b2003f
0,      19456,      19456,     1024,     2048, 0xa20ef3ed
0,      20480,      20480,     1024,     2048, 0x44cef9de
0,      21504,      21504,     1024,     2048, 0x4b2e039b
0,      22528,      22528,     1024,     2048, 0x198509a1
0,      23552,      23552,     1024,     2048, 0xcab6f9e5
0,      24576,      24576,     1024,     2048, 0x67f8f608
0,      25600,      25600,     1024,     2048, 0x8d7f03fa
0,      26624,      26624,     1024,     2048, 0x3e1e0566
0,      27648,      27648,     1024,     2048, 0x2cfe0308
0,      28672,      28672,     1024,     2048, 0x1ceaf702
0,      29696,      29696,     1024,     2048, 0x38a9f3d1
0,      30720,      30720,     1024,     2048, 0x6c3306b7
0,      31744,      31744,     1024,     2048, 0x600f0579
0,      32768,      32768,     1024,     2048, 0x3e5afa28
0,      33792,      33792,     1024,     2048, 0x053ff47a
0,      34816,      34816,     1024,     2048, 0x0d28fed9
0,      35840,      35840,     1024,     2048, 0x279805cc
0,      36864,      36864,     1024,     2048, 0xb16a0a12
0,      37888,      37888,     1024,     2048, 0xb45af340
0,      38912,      38912,     1024,     2048, 0x1834f972
0,      39936,      39936,     1024,     2048, 0xb5d206ae
0,      40960,      40960,     1024,     2048, 0xc5760375
0,      41984,      41984,     1024,     2048, 0x503800ce
0,      43008,      43008,     1024,     2048, 0xa3bbf4af
0,      44032,      44032,     1024,     2048, 0x9012f9d2
